# xmcd CD database file
#
# Track frame offsets:
#	150
#	22360
#	37708
#	59823
#
# Disc length: 1002 seconds
#
# Revision: 2
# Processed by: cddbd v1.5.2PL0 Copyright (c) Steve Scherf et al.
# Submitted via: CDex 1.70beta3
#
DISCID=3303e804
DTITLE=高橋洋子 - 慟哭へのモノローグ
DYEAR=2010
DGENRE=Game
TTITLE0=慟哭へのモノローグ
TTITLE1=AveMaria_2010
TTITLE2=慟哭へのモノローグ (Off Vocal Version)
TTITLE3=AveMaria_2010 (Off Vocal Version)
EXTD=YEAR: 2010
EXTT0=
EXTT1=
EXTT2=
EXTT3=
PLAYORDER=
